<?xml version="1.0" standalone="no"?>
<!DOCTYPE svg PUBLIC "-//W3C//DTD SVG 20010904//EN"
 "http://www.w3.org/TR/2001/REC-SVG-20010904/DTD/svg10.dtd">
<svg version="1.0" xmlns="http://www.w3.org/2000/svg"
 width="512.000000pt" height="512.000000pt" viewBox="0 0 512.000000 512.000000"
 preserveAspectRatio="xMidYMid meet">
<metadata>
Created by potrace 1.14, written by Peter Selinger 2001-2017
</metadata>
<g transform="translate(0.000000,512.000000) scale(0.100000,-0.100000)"
fill="#000000" stroke="none">
<path d="M2330 3965 c-129 -20 -148 -24 -245 -51 -286 -81 -530 -226 -745
-443 -156 -156 -242 -276 -335 -466 -116 -239 -168 -467 -174 -769 -3 -152 -2
-154 34 -124 6 5 17 14 26 21 14 10 18 39 23 157 3 80 8 161 11 180 11 71 47
233 57 259 5 14 11 33 13 41 8 38 71 184 116 266 76 141 164 258 284 379 210
210 453 351 742 430 150 41 269 54 458 51 272 -6 462 -52 700 -171 169 -84
294 -174 430 -310 222 -221 374 -495 441 -795 31 -141 42 -238 44 -410 1 -65
1 -65 42 -93 l41 -29 -6 179 c-7 202 -9 215 -43 371 -22 98 -53 197 -83 267
-111 253 -236 434 -419 606 -82 77 -211 177 -272 210 -14 8 -27 17 -30 20 -3
4 -57 32 -121 63 -167 80 -308 124 -519 161 -74 13 -385 13 -470 0z"/>
<path d="M1279 2486 c-44 -14 -89 -43 -109 -70 -47 -65 -45 -45 -48 -547 l-2
-476 28 -54 c54 -104 172 -145 280 -99 60 26 93 61 116 122 15 38 17 97 14
513 -3 515 -1 498 -65 556 -60 56 -142 77 -214 55z"/>
<path d="M3695 2487 c-48 -15 -91 -53 -114 -100 -20 -42 -21 -55 -20 -528 0
-345 4 -493 12 -514 36 -94 117 -135 239 -124 82 7 130 39 166 110 22 44 22
44 22 527 -1 344 -4 490 -12 510 -37 86 -96 123 -198 127 -36 1 -78 -3 -95 -8z"/>
<path d="M977 2085 c-114 -42 -179 -164 -152 -283 22 -94 81 -154 178 -180
l37 -10 1 59 c0 32 1 77 1 99 0 364 4 340 -65 315z"/>
<path d="M4080 2033 c-1 -97 -1 -342 0 -380 0 -40 22 -43 87 -12 203 98 167
406 -54 454 l-33 7 0 -69z"/>
</g>
</svg>
